<?xml version="1.0" encoding="utf-8"?>
<!-- Generator: Adobe Illustrator 16.2.1, SVG Export Plug-In . SVG Version: 6.00 Build 0)  -->
<!DOCTYPE svg PUBLIC "-//W3C//DTD SVG 1.1//EN" "http://www.w3.org/Graphics/SVG/1.1/DTD/svg11.dtd">
<svg version="1.1" id="レイヤー_1" xmlns="http://www.w3.org/2000/svg" xmlns:xlink="http://www.w3.org/1999/xlink" x="0px"
	 y="0px" width="841.89px" height="595.28px" viewBox="0 0 841.89 595.28" enable-background="new 0 0 841.89 595.28"
	 xml:space="preserve">
<path fill="#402000" d="M174.08,379.45c-27.046,0-49.596-10.824-65.21-31.301c-13.071-17.142-20.27-39.974-20.27-64.29
	c0-14.443,4.304-36.434,16.385-54.841c10.706-16.313,31.384-35.759,69.095-35.759c22.103,0,40.334,7.074,54.187,21.026
	c26.21,26.398,26.216,67.91,26.203,69.664l-0.089,12.411h-139.89c3.594,25.771,18.844,58.09,59.589,58.09
	c38.248,0,53.58-25.179,53.73-25.433l6.363-10.759l21.519,12.726l-6.363,10.759C248.418,343.282,226.428,379.45,174.08,379.45z
	 M114.827,271.36h113.47c-1.798-11.328-6.347-28.015-17.86-39.548c-9.103-9.119-20.995-13.552-36.357-13.552
	c-21.321,0-37.536,8.235-48.195,24.476C119.91,251.841,116.475,262.316,114.827,271.36z"/>
<path fill="#402000" d="M544.93,379.45c-52.284,0-94.82-41.765-94.82-93.1c0-51.33,42.536-93.09,94.82-93.09
	c52.278,0,94.81,41.76,94.81,93.09C639.74,337.686,597.208,379.45,544.93,379.45z M544.93,218.26
	c-38.499,0-69.82,30.545-69.82,68.09c0,37.55,31.321,68.1,69.82,68.1c38.493,0,69.81-30.55,69.81-68.1
	C614.74,248.805,583.423,218.26,544.93,218.26z"/>
<path fill="#402000" d="M812.815,257.321c-0.141-1.662-1.652-16.68-11.053-32.049c-9.087-14.854-27.208-32.562-61.932-32.562
	c-27.51,0-46.085,10.994-57.65,21.689v-6.529h-25v48.727l-0.024,0.07l0.024,0.008V379.45h25V260.823l2.695-7.744
	c0.029-0.084,3.299-8.824,11.373-17.443c11.143-11.895,25.806-17.926,43.582-17.926c18.264,0,31.782,6.702,40.177,19.92
	c6.036,9.503,7.589,19.417,7.853,21.437V379.45h25V258.38L812.815,257.321z"/>
<path fill="none" stroke="#402000" stroke-width="25" stroke-linecap="square" stroke-miterlimit="10" d="M796,366.95"/>
<g>
	<line fill="#402000" x1="811.17" y1="460.01" x2="786.17" y2="460.01"/>
	<path fill="#402000" d="M433.789,460.732c0,0,0.003,0.159-0.038,0.458c0.006-0.045,0.08-0.464,0.303-1.181H421.31L433.789,460.732z
		"/>
	<path fill="#402000" d="M584.164,387.69c-68.786,0.474-118.737,11.457-148.465,32.643c-0.452,0.322-0.881,0.645-1.318,0.968V262.26
		l-0.021-0.716c-0.105-1.83-1.317-18.365-11.437-35.324c-9.726-16.3-29.482-35.73-68.373-35.73c-12.713,0-34.107,3.685-54.26,24.155
		V121.8h-25v257.65h25V257.605l3.636-6.335c17.865-31.131,39.386-35.78,50.624-35.78c21.465,0,37.099,7.679,46.469,22.822
		c6.863,11.093,8.193,22.655,8.361,24.429v159.046c-1.196-0.925-2.433-1.849-3.749-2.769c-31.327-21.897-84.106-33-156.872-33
		c-87.911,0-150.943,10.931-187.342,32.49c-2.615,1.549-5.019,3.109-7.228,4.67V120.14h-25v339.87h25.022
		c0.642-2.66,16.182-48.99,194.548-48.99c138.805,0,157.583,41.548,159.823,48.99h12.728h12.744
		c2.287-7.335,20.602-46.426,150.283-47.32c115.753-0.8,178.35,20.301,196.794,38.618c3.249,3.227,5.039,6.317,5.039,8.703h25
		c0-6.435-2.155-16.246-12.422-26.441C769.088,404.114,688.882,386.946,584.164,387.69z"/>
	<path fill="#402000" d="M408.865,461.147c-0.039-0.293-0.036-0.449-0.036-0.449l12.481-0.688h-12.728
		C408.791,460.7,408.859,461.104,408.865,461.147z"/>
	<path fill="#402000" d="M54.189,460.125c0-0.012,0.007-0.051,0.023-0.116H29.19L54.189,460.125z"/>
</g>
</svg>
